<svg width="24" height="24" viewBox="0 0 24 24" fill="none" xmlns="http://www.w3.org/2000/svg">
    <path d="
        M13.4053 18.5987L12.0052 19.9988L11.9981 19.9917L11.9912 19.9986L10.5912 18.5986L10.5981
        18.5917L5.69816 13.6917C5.31155 13.3051 5.31155 12.6783 5.69816 12.2916C6.08478 11.905
        6.71161 11.905 7.09822 12.2916L10.9984 16.1918L10.9984 5.00153C10.9984 4.44924 11.4461
        4.00153 11.9984 4.00153C12.5507 4.00153 12.9984 4.44924 12.9984 5.00153L12.9984 16.1914L16.8984
        12.2914C17.285 11.9048 17.9118 11.9048 18.2984 12.2914C18.685 12.678 18.685 13.3048 18.2984
        13.6914L13.3982 18.5916L13.4053 18.5987Z" fill="currentColor">
    </path>
</svg>